<svg width="12" height="12" viewBox="0 0 12 12" fill="none" xmlns="http://www.w3.org/2000/svg">
<path fill-rule="evenodd" clip-rule="evenodd" d="M1.5 11.625V1.5C1.5 1.10218 1.65804 0.720644 1.93934 0.43934C2.22064 0.158035 2.60218 0 3 0L9 0C9.39782 0 9.77936 0.158035 10.0607 0.43934C10.342 0.720644 10.5 1.10218 10.5 1.5V11.625C10.5 11.6901 10.4831 11.7541 10.4509 11.8107C10.4187 11.8673 10.3723 11.9146 10.3163 11.9478C10.2603 11.981 10.1966 11.9991 10.1315 12.0002C10.0664 12.0013 10.0021 11.9855 9.945 11.9543L6 9.80175L2.055 11.9543C1.99787 11.9855 1.93359 12.0013 1.86848 12.0002C1.80337 11.9991 1.73968 11.981 1.68367 11.9478C1.62766 11.9146 1.58127 11.8673 1.54907 11.8107C1.51686 11.7541 1.49995 11.6901 1.5 11.625ZM6.12 3.075C6.10904 3.05251 6.09197 3.03355 6.07075 3.02029C6.04954 3.00703 6.02502 3 6 3C5.97498 3 5.95046 3.00703 5.92924 3.02029C5.90803 3.03355 5.89096 3.05251 5.88 3.075L5.4045 4.03875C5.39498 4.05825 5.38085 4.07513 5.36334 4.08793C5.34583 4.10074 5.32546 4.10909 5.304 4.11225L4.239 4.26675C4.21448 4.27047 4.19149 4.28095 4.17259 4.297C4.15369 4.31306 4.13964 4.33406 4.13201 4.35766C4.12438 4.38125 4.12347 4.4065 4.12938 4.43059C4.1353 4.45467 4.14781 4.47663 4.1655 4.494L4.935 5.24475C4.9665 5.2755 4.98075 5.31975 4.97325 5.36325L4.7925 6.42375C4.78842 6.44824 4.79126 6.47338 4.80068 6.49634C4.8101 6.51931 4.82574 6.5392 4.84584 6.55377C4.86594 6.56833 4.88971 6.57701 4.91446 6.57882C4.93922 6.58063 4.964 6.57549 4.986 6.564L5.9385 6.063C5.9576 6.05301 5.97883 6.04779 6.00037 6.04779C6.02192 6.04779 6.04315 6.05301 6.06225 6.063L7.01475 6.564C7.03673 6.57529 7.06141 6.58026 7.08605 6.57835C7.11068 6.57644 7.13431 6.56773 7.15429 6.55319C7.17427 6.53866 7.18982 6.51886 7.19922 6.49601C7.20861 6.47315 7.21148 6.44814 7.2075 6.42375L7.026 5.3625C7.02217 5.34119 7.02359 5.31926 7.03012 5.29862C7.03665 5.27798 7.04811 5.25923 7.0635 5.244L7.8345 4.49325C7.8522 4.47588 7.8647 4.45392 7.87062 4.42984C7.87653 4.40575 7.87562 4.3805 7.86799 4.35691C7.86036 4.33331 7.84631 4.31231 7.82741 4.29625C7.80851 4.2802 7.78552 4.26972 7.761 4.266L6.696 4.1115C6.67454 4.10834 6.65417 4.09999 6.63666 4.08718C6.61914 4.07438 6.60502 4.0575 6.5955 4.038L6.12 3.075Z" fill="#6A52FD"/>
</svg>
