<svg width="20" height="21" viewBox="0 0 20 21" fill="none" xmlns="http://www.w3.org/2000/svg">
<path fill-rule="evenodd" clip-rule="evenodd" d="M1.6665 3.83317C1.6665 2.9127 2.4127 2.1665 3.33317 2.1665H6.6665H7.49984V2.99984V17.9998V18.8332H6.6665H3.33317C2.4127 18.8332 1.6665 18.087 1.6665 17.1665V3.83317ZM5.83317 3.83317L3.33317 3.83317V17.1665H5.83317V3.83317ZM9.1665 2.1665H9.99984H16.6665C17.587 2.1665 18.3332 2.9127 18.3332 3.83317V8.83317V9.6665H17.4998H9.99984H9.1665V8.83317V2.99984V2.1665ZM10.8332 3.83317V7.99984H16.6665V3.83317H10.8332ZM9.99984 11.3332H9.1665V12.1665V17.9998V18.8332H9.99984H16.6665C17.587 18.8332 18.3332 18.087 18.3332 17.1665V12.1665V11.3332H17.4998H9.99984ZM10.8332 17.1665V12.9998H16.6665V17.1665H10.8332Z" fill="#828282"/>
</svg>
