<svg width="20" height="21" viewBox="0 0 20 21" fill="none" xmlns="http://www.w3.org/2000/svg">
<path fill-rule="evenodd" clip-rule="evenodd" d="M11.6834 2.59178C12.2714 2.31241 12.9067 2.1665 13.5517 2.1665C14.1968 2.1665 14.8321 2.31241 15.4201 2.59178C16.0077 2.87092 16.5336 3.27626 16.9713 3.77833C17.409 4.27992 17.7511 4.8695 17.983 5.511C18.2148 6.15262 18.3332 6.83717 18.3332 7.52639C18.3332 8.21562 18.2148 8.90017 17.983 9.54178C17.7511 10.1834 17.4088 10.7731 16.9711 11.2747L10.6277 18.5476C10.4694 18.729 10.2404 18.8332 9.99965 18.8332C9.75888 18.8332 9.52989 18.729 9.37163 18.5476L3.02808 11.2746C2.1462 10.2635 1.6665 8.91381 1.6665 7.52639C1.6665 6.13898 2.1462 4.78928 3.02808 3.77819C3.91312 2.76347 5.1399 2.16694 6.44754 2.16694C7.75519 2.16694 8.98197 2.76347 9.86701 3.77819C9.893 3.80799 9.91684 3.8396 9.93834 3.87279L9.99965 3.96739L10.0609 3.87279C10.0824 3.83965 10.1062 3.80809 10.1322 3.77833C10.5699 3.27626 11.0958 2.87092 11.6834 2.59178ZM13.5517 3.83317C13.1599 3.83317 12.7684 3.9215 12.3985 4.0972C12.0436 4.2658 11.7125 4.51312 11.4257 4.83157L10.699 5.953C10.5454 6.19006 10.2821 6.33317 9.99965 6.33317C9.71716 6.33317 9.45391 6.19006 9.3003 5.953L8.57369 4.83165C7.98293 4.17614 7.21759 3.83361 6.44754 3.83361C5.66119 3.83361 4.87975 4.1908 4.28411 4.87371C3.68531 5.56024 3.33317 6.513 3.33317 7.52639C3.33317 8.53978 3.68531 9.49255 4.28411 10.1791L9.99965 16.732L15.7152 10.1791C16.0108 9.84029 16.2505 9.43197 16.4155 8.97531C16.5805 8.51864 16.6665 8.02601 16.6665 7.52639C16.6665 7.02678 16.5805 6.53415 16.4155 6.07748C16.2505 5.62082 16.0109 5.21264 15.7153 4.87385C15.42 4.53509 15.0753 4.27314 14.705 4.0972C14.3351 3.9215 13.9436 3.83317 13.5517 3.83317Z" fill="#828282"/>
</svg>
