<svg width="20" height="21" viewBox="0 0 20 21" fill="none" xmlns="http://www.w3.org/2000/svg">
<path fill-rule="evenodd" clip-rule="evenodd" d="M11.0796 2.56345C10.4572 2.03419 9.54283 2.03419 8.92037 2.56345L3.08704 7.52348C2.71462 7.84015 2.5 8.30435 2.5 8.7932V17.1676C2.5 18.0881 3.24619 18.8343 4.16667 18.8343H15.8333C16.7538 18.8343 17.5 18.0881 17.5 17.1676V8.7932C17.5 8.30435 17.2854 7.84015 16.913 7.52348L11.0796 2.56345ZM10 3.83317L15.8333 8.7932V17.1676H12.5025V14.0148C12.5025 13.0943 11.7563 12.3481 10.8358 12.3481H9.16667C8.24619 12.3481 7.5 13.0943 7.5 14.0148V17.1676H4.16667V8.7932L10 3.83317ZM9.16667 17.1676H10.8358V14.0148L9.16667 14.0148V17.1676Z" fill="#6A52FD"/>
</svg>
