<svg width="200" height="265" viewBox="0 0 200 265" fill="none" xmlns="http://www.w3.org/2000/svg">
<g filter="url(#filter0_d_2539_11731)">
<path d="M50.1823 217.246C62.1176 217.246 71.7931 204.934 71.7931 189.747C71.7931 174.56 62.1176 162.248 50.1823 162.248C38.247 162.248 28.5715 174.56 28.5715 189.747C28.5715 204.934 38.247 217.246 50.1823 217.246Z" fill="#6A52FD"/>
<path d="M50.1823 101.27C62.1176 101.27 71.7931 88.9585 71.7931 73.7713C71.7931 58.5841 62.1176 46.2725 50.1823 46.2725C38.247 46.2725 28.5715 58.5841 28.5715 73.7713C28.5715 88.9585 38.247 101.27 50.1823 101.27Z" fill="url(#paint0_linear_2539_11731)"/>
<path fill-rule="evenodd" clip-rule="evenodd" d="M84.2427 82.7387V146.703L169.981 67.4947V0.839844L84.2427 82.7387Z" fill="url(#paint1_linear_2539_11731)"/>
<path fill-rule="evenodd" clip-rule="evenodd" d="M83.7732 175.098V111.134L169.512 190.342V256.698L83.7732 175.098Z" fill="#6A52FD"/>
</g>
<defs>
<filter id="filter0_d_2539_11731" x="-4" y="0.839844" width="208" height="263.859" filterUnits="userSpaceOnUse" color-interpolation-filters="sRGB">
<feFlood flood-opacity="0" result="BackgroundImageFix"/>
<feColorMatrix in="SourceAlpha" type="matrix" values="0 0 0 0 0 0 0 0 0 0 0 0 0 0 0 0 0 0 127 0" result="hardAlpha"/>
<feOffset dy="4"/>
<feGaussianBlur stdDeviation="2"/>
<feComposite in2="hardAlpha" operator="out"/>
<feColorMatrix type="matrix" values="0 0 0 0 0 0 0 0 0 0 0 0 0 0 0 0 0 0 0.25 0"/>
<feBlend mode="normal" in2="BackgroundImageFix" result="effect1_dropShadow_2539_11731"/>
<feBlend mode="normal" in="SourceGraphic" in2="effect1_dropShadow_2539_11731" result="shape"/>
</filter>
<linearGradient id="paint0_linear_2539_11731" x1="28.5114" y1="73.8487" x2="71.693" y2="73.8487" gradientUnits="userSpaceOnUse">
<stop stop-color="#FD52AB"/>
<stop offset="1" stop-color="#DA1C5C"/>
</linearGradient>
<linearGradient id="paint1_linear_2539_11731" x1="84.2605" y1="73.8491" x2="170.051" y2="73.8491" gradientUnits="userSpaceOnUse">
<stop stop-color="#FD52AB"/>
<stop offset="1" stop-color="#DA1C5C"/>
</linearGradient>
</defs>
</svg>
