<svg width="200" height="349" viewBox="0 0 200 349" fill="none" xmlns="http://www.w3.org/2000/svg">
<g filter="url(#filter0_d_2539_11730)">
<path d="M50.1823 217.246C62.1176 217.246 71.7931 204.934 71.7931 189.747C71.7931 174.56 62.1176 162.248 50.1823 162.248C38.247 162.248 28.5715 174.56 28.5715 189.747C28.5715 204.934 38.247 217.246 50.1823 217.246Z" fill="#6A52FD"/>
<path d="M50.1823 101.27C62.1176 101.27 71.7931 88.9585 71.7931 73.7713C71.7931 58.5841 62.1176 46.2725 50.1823 46.2725C38.247 46.2725 28.5715 58.5841 28.5715 73.7713C28.5715 88.9585 38.247 101.27 50.1823 101.27Z" fill="url(#paint0_linear_2539_11730)"/>
<path fill-rule="evenodd" clip-rule="evenodd" d="M84.2427 82.7387V146.703L169.981 67.4947V0.839844L84.2427 82.7387Z" fill="url(#paint1_linear_2539_11730)"/>
<path fill-rule="evenodd" clip-rule="evenodd" d="M83.7732 175.098V111.134L169.512 190.342V256.698L83.7732 175.098Z" fill="#6A52FD"/>
</g>
<path d="M51.72 324.316L51.496 319.388L63.24 307.196H67.912L58.152 317.564L55.848 320.092L51.72 324.316ZM48.008 329.596V307.196H52.168V329.596H48.008ZM63.624 329.596L55.048 319.388L57.8 316.348L68.488 329.596H63.624ZM70.9365 329.596V312.508H74.9365V329.596H70.9365ZM72.9525 309.692C72.2058 309.692 71.5872 309.457 71.0965 308.988C70.6272 308.518 70.3925 307.953 70.3925 307.292C70.3925 306.609 70.6272 306.044 71.0965 305.596C71.5872 305.126 72.2058 304.892 72.9525 304.892C73.6992 304.892 74.3072 305.116 74.7765 305.564C75.2672 305.99 75.5125 306.534 75.5125 307.196C75.5125 307.9 75.2778 308.497 74.8085 308.988C74.3392 309.457 73.7205 309.692 72.9525 309.692ZM88.2185 329.82C86.3198 329.82 84.6558 329.446 83.2265 328.7C81.8185 327.932 80.7198 326.886 79.9305 325.564C79.1625 324.241 78.7785 322.737 78.7785 321.052C78.7785 319.345 79.1518 317.841 79.8985 316.54C80.6665 315.217 81.7118 314.182 83.0345 313.436C84.3785 312.689 85.9038 312.316 87.6105 312.316C89.2745 312.316 90.7572 312.678 92.0585 313.404C93.3598 314.129 94.3838 315.153 95.1305 316.476C95.8772 317.798 96.2505 319.356 96.2505 321.148C96.2505 321.318 96.2398 321.51 96.2185 321.724C96.2185 321.937 96.2078 322.14 96.1865 322.332H81.9465V319.676H94.0745L92.5065 320.508C92.5278 319.526 92.3252 318.662 91.8985 317.916C91.4718 317.169 90.8852 316.582 90.1385 316.156C89.4132 315.729 88.5705 315.516 87.6105 315.516C86.6292 315.516 85.7652 315.729 85.0185 316.156C84.2932 316.582 83.7172 317.18 83.2905 317.948C82.8852 318.694 82.6825 319.58 82.6825 320.604V321.244C82.6825 322.268 82.9172 323.174 83.3865 323.964C83.8558 324.753 84.5172 325.361 85.3705 325.788C86.2238 326.214 87.2052 326.428 88.3145 326.428C89.2745 326.428 90.1385 326.278 90.9065 325.98C91.6745 325.681 92.3572 325.212 92.9545 324.572L95.0985 327.036C94.3305 327.932 93.3598 328.625 92.1865 329.116C91.0345 329.585 89.7118 329.82 88.2185 329.82ZM103.357 325.788L103.453 320.764L112.381 312.508H117.181L109.597 320.124L107.485 321.884L103.357 325.788ZM100.093 329.596V305.852H104.093V329.596H100.093ZM112.989 329.596L106.749 321.884L109.277 318.684L117.853 329.596H112.989ZM123.701 325.788L123.797 320.764L132.725 312.508H137.525L129.941 320.124L127.829 321.884L123.701 325.788ZM120.437 329.596V305.852H124.437V329.596H120.437ZM133.333 329.596L127.093 321.884L129.621 318.684L138.197 329.596H133.333ZM141.22 336.028C140.388 336.028 139.556 335.889 138.724 335.612C137.892 335.334 137.198 334.95 136.643 334.46L138.243 331.516C138.649 331.878 139.108 332.166 139.62 332.38C140.132 332.593 140.654 332.7 141.188 332.7C141.913 332.7 142.5 332.518 142.948 332.156C143.396 331.793 143.812 331.185 144.196 330.332L145.188 328.092L145.508 327.612L151.972 312.508H155.812L147.812 330.972C147.278 332.252 146.681 333.265 146.02 334.012C145.38 334.758 144.654 335.281 143.844 335.58C143.054 335.878 142.18 336.028 141.22 336.028ZM144.74 330.204L137.027 312.508H141.188L147.46 327.26L144.74 330.204Z" fill="white"/>
<defs>
<filter id="filter0_d_2539_11730" x="-4" y="0.839844" width="208" height="263.859" filterUnits="userSpaceOnUse" color-interpolation-filters="sRGB">
<feFlood flood-opacity="0" result="BackgroundImageFix"/>
<feColorMatrix in="SourceAlpha" type="matrix" values="0 0 0 0 0 0 0 0 0 0 0 0 0 0 0 0 0 0 127 0" result="hardAlpha"/>
<feOffset dy="4"/>
<feGaussianBlur stdDeviation="2"/>
<feComposite in2="hardAlpha" operator="out"/>
<feColorMatrix type="matrix" values="0 0 0 0 0 0 0 0 0 0 0 0 0 0 0 0 0 0 0.25 0"/>
<feBlend mode="normal" in2="BackgroundImageFix" result="effect1_dropShadow_2539_11730"/>
<feBlend mode="normal" in="SourceGraphic" in2="effect1_dropShadow_2539_11730" result="shape"/>
</filter>
<linearGradient id="paint0_linear_2539_11730" x1="28.5114" y1="73.8487" x2="71.693" y2="73.8487" gradientUnits="userSpaceOnUse">
<stop stop-color="#FD52AB"/>
<stop offset="1" stop-color="#DA1C5C"/>
</linearGradient>
<linearGradient id="paint1_linear_2539_11730" x1="84.2605" y1="73.8491" x2="170.051" y2="73.8491" gradientUnits="userSpaceOnUse">
<stop stop-color="#FD52AB"/>
<stop offset="1" stop-color="#DA1C5C"/>
</linearGradient>
</defs>
</svg>
