<svg width="20" height="21" viewBox="0 0 20 21" fill="none" xmlns="http://www.w3.org/2000/svg">
<path fill-rule="evenodd" clip-rule="evenodd" d="M6.72996 3.8335C7.19664 3.8335 7.57497 4.20597 7.57497 4.66544C7.57497 5.12492 7.19664 5.49739 6.72996 5.49739H5.02351L5.02351 15.5029H6.72996C7.19664 15.5029 7.57497 15.8754 7.57497 16.3349C7.57497 16.7944 7.19664 17.1668 6.72996 17.1668H5.02351C4.09014 17.1668 3.3335 16.4219 3.3335 15.5029V5.49739C3.3335 4.57845 4.09014 3.8335 5.02351 3.8335H6.72996ZM12.1943 13.2086L14.1318 11.3011H7.49903C7.03235 11.3011 6.65402 10.9286 6.65402 10.4691C6.65402 10.0097 7.03235 9.63717 7.49903 9.63717H14.1318L12.1943 7.72961C11.8643 7.40471 11.8643 6.87795 12.1943 6.55305C12.5243 6.22816 13.0593 6.22816 13.3893 6.55305L16.1718 9.29257C16.8318 9.94236 16.8318 10.9959 16.1718 11.6457L13.3893 14.3852C13.0593 14.7101 12.5243 14.7101 12.1943 14.3852C11.8643 14.0603 11.8643 13.5335 12.1943 13.2086Z" fill="#828282"/>
</svg>
