<svg width="20" height="21" viewBox="0 0 20 21" fill="none" xmlns="http://www.w3.org/2000/svg">
<path fill-rule="evenodd" clip-rule="evenodd" d="M3.51852 3C2.26565 3 1.25 4.08485 1.25 5.42308V15.5769C1.25 16.9152 2.26565 18 3.51852 18H16.4815C17.7344 18 18.75 16.9152 18.75 15.5769V5.42308C18.75 4.08485 17.7343 3 16.4815 3H3.51852ZM3.19444 6.24847V15.5769C3.19444 15.7681 3.33954 15.9231 3.51852 15.9231H16.4815C16.6605 15.9231 16.8056 15.7681 16.8056 15.5769V6.24847L11.378 10.6817C10.5646 11.3461 9.43538 11.3461 8.62199 10.6817L3.19444 6.24847ZM15.0389 5.07692H4.96113L9.80314 9.03191C9.91934 9.12682 10.0807 9.12682 10.1969 9.03191L15.0389 5.07692Z" fill="#828282"/>
</svg>
