<svg width="18" height="16" viewBox="0 0 18 16" fill="none" xmlns="http://www.w3.org/2000/svg">
<path fill-rule="evenodd" clip-rule="evenodd" d="M5.6668 0.5C5.3082 0.5 4.98981 0.729416 4.87631 1.06959L4.23223 3H1.49935C1.03911 3 0.666016 3.3731 0.666016 3.83334V14.6667C0.666016 15.1269 1.03911 15.5 1.49935 15.5H16.4993C16.9596 15.5 17.3327 15.1269 17.3327 14.6667V3.83334C17.3327 3.61232 17.2449 3.40036 17.0886 3.24408C16.9323 3.0878 16.7204 3 16.4993 3L13.7668 3.00001L13.1241 1.07004C13.0108 0.729635 12.6923 0.5 12.3335 0.5H5.6668ZM5.62318 4.09708L6.26726 2.16667H11.7327L12.3754 4.09664C12.4887 4.43704 12.8072 4.66667 13.166 4.66667L15.666 4.66667V13.8333H2.33268V4.66667H4.83268C5.19129 4.66667 5.50968 4.43725 5.62318 4.09708ZM11.4993 8.83333C11.4993 10.214 10.3801 11.3333 8.99935 11.3333C7.61864 11.3333 6.49935 10.214 6.49935 8.83333C6.49935 7.45262 7.61864 6.33333 8.99935 6.33333C10.3801 6.33333 11.4993 7.45262 11.4993 8.83333ZM13.166 8.83333C13.166 11.1345 11.3005 13 8.99935 13C6.69816 13 4.83268 11.1345 4.83268 8.83333C4.83268 6.53215 6.69816 4.66667 8.99935 4.66667C11.3005 4.66667 13.166 6.53215 13.166 8.83333Z" fill="#BDBDBD"/>
</svg>
