<svg width="20" height="21" viewBox="0 0 20 21" fill="none" xmlns="http://www.w3.org/2000/svg">
<path fill-rule="evenodd" clip-rule="evenodd" d="M9.18239 2.1665C8.26192 2.1665 7.51572 2.9127 7.51572 3.83317V4.62778L7.44212 4.66458L6.84886 4.07132C6.19798 3.42045 5.14271 3.42045 4.49183 4.07132L3.52738 5.03578C2.8765 5.68666 2.8765 6.74193 3.52738 7.3928L4.12064 7.98606L4.08383 8.05967L3.28923 8.05967C2.36875 8.05967 1.62256 8.80586 1.62256 9.72634V11.2741C1.62256 12.1946 2.36875 12.9408 3.28923 12.9408H4.08383L4.12064 13.0144L3.52738 13.6077C2.8765 14.2585 2.8765 15.3138 3.52738 15.9647L4.49184 16.9291C5.14271 17.58 6.19798 17.58 6.84886 16.9291L7.44212 16.3359L7.51573 16.3727L7.51572 17.1673C7.51572 18.0878 8.26192 18.834 9.18239 18.834H10.7302C11.6507 18.834 12.3968 18.0878 12.3968 17.1673V16.3727L12.4705 16.3359L13.0637 16.9291C13.7146 17.58 14.7699 17.58 15.4207 16.9291L16.3852 15.9647C17.0361 15.3138 17.0361 14.2585 16.3852 13.6077L15.7919 13.0144L15.8287 12.9408H16.6233C17.5438 12.9408 18.29 12.1946 18.29 11.2741V9.72634C18.29 8.80586 17.5438 8.05967 16.6233 8.05967H15.8287L15.7919 7.98606L16.3852 7.3928C17.0361 6.74193 17.0361 5.68666 16.3852 5.03578L15.4207 4.07132C14.7699 3.42045 13.7146 3.42045 13.0637 4.07132L12.4705 4.66458L12.3968 4.62778V3.83317C12.3968 2.9127 11.6507 2.1665 10.7302 2.1665H9.18239ZM9.18239 3.83317H10.7302V4.62778C10.7302 5.25906 11.0868 5.83617 11.6515 6.11849L11.7251 6.15529C12.3667 6.47612 13.1417 6.35036 13.649 5.84309L14.2422 5.24983L15.2067 6.21429L14.6134 6.80755C14.1062 7.31482 13.9804 8.08977 14.3012 8.73142L14.338 8.80503C14.6203 9.36967 15.1974 9.72634 15.8287 9.72634H16.6233V11.2741H15.8287C15.1975 11.2741 14.6203 11.6308 14.338 12.1954L14.3012 12.269C13.9804 12.9107 14.1062 13.6856 14.6134 14.1929L15.2067 14.7862L14.2422 15.7506L13.649 15.1574C13.1417 14.6501 12.3667 14.5243 11.7251 14.8452L11.6515 14.882C11.0869 15.1643 10.7302 15.7414 10.7302 16.3727V17.1673H9.18239V16.3727C9.18239 15.7414 8.82572 15.1643 8.26108 14.882L8.18747 14.8452C7.54583 14.5243 6.77087 14.6501 6.26361 15.1574L5.67035 15.7506L4.70589 14.7862L5.29915 14.1929C5.80641 13.6856 5.93217 12.9107 5.61135 12.269L5.57454 12.1954C5.29223 11.6308 4.71512 11.2741 4.08383 11.2741H3.28923V9.72634H4.08383C4.71512 9.72634 5.29222 9.36967 5.57454 8.80503L5.61135 8.73142C5.93217 8.08977 5.80641 7.31482 5.29915 6.80755L4.70589 6.21429L5.67035 5.24983L6.26361 5.84309C6.77087 6.35036 7.54583 6.47612 8.18747 6.15529L8.26108 6.11849C8.82572 5.83617 9.18239 5.25907 9.18239 4.62778V3.83317ZM8.64665 10.4999C8.64665 9.77677 9.23285 9.19056 9.95597 9.19056C10.6791 9.19056 11.2653 9.77677 11.2653 10.4999C11.2653 11.223 10.6791 11.8092 9.95597 11.8092C9.23285 11.8092 8.64665 11.223 8.64665 10.4999ZM9.95597 7.5239C8.31238 7.5239 6.97998 8.85629 6.97998 10.4999C6.97998 12.1435 8.31238 13.4759 9.95597 13.4759C11.5996 13.4759 12.932 12.1435 12.932 10.4999C12.932 8.85629 11.5996 7.5239 9.95597 7.5239Z" fill="#828282"/>
</svg>
