<svg width="24" height="25" viewBox="0 0 24 25" fill="none" xmlns="http://www.w3.org/2000/svg">
<path fill-rule="evenodd" clip-rule="evenodd" d="M22.5 12.5C22.5 12.3011 22.421 12.1104 22.2803 11.9697C22.1397 11.829 21.9489 11.75 21.75 11.75L4.0605 11.75L8.781 7.03103C8.92183 6.8902 9.00095 6.69919 9.00095 6.50003C9.00095 6.30087 8.92183 6.10986 8.781 5.96903C8.64017 5.8282 8.44916 5.74908 8.25 5.74908C8.05084 5.74908 7.85983 5.8282 7.719 5.96903L1.719 11.969C1.64915 12.0387 1.59374 12.1215 1.55593 12.2126C1.51812 12.3037 1.49866 12.4014 1.49866 12.5C1.49866 12.5987 1.51812 12.6964 1.55593 12.7875C1.59374 12.8786 1.64915 12.9614 1.719 13.031L7.719 19.031C7.85983 19.1719 8.05084 19.251 8.25 19.251C8.44916 19.251 8.64017 19.1719 8.781 19.031C8.92183 18.8902 9.00095 18.6992 9.00095 18.5C9.00095 18.3009 8.92183 18.1099 8.781 17.969L4.0605 13.25L21.75 13.25C21.9489 13.25 22.1397 13.171 22.2803 13.0304C22.421 12.8897 22.5 12.6989 22.5 12.5Z" fill="#999999"/>
</svg>
