<svg width="18" height="12" viewBox="0 0 18 12" fill="none" xmlns="http://www.w3.org/2000/svg">
<path fill-rule="evenodd" clip-rule="evenodd" d="M0.666504 1.13851C0.666504 0.678272 1.0396 0.305176 1.49984 0.305176H12.3274C12.7876 0.305176 13.1607 0.678272 13.1607 1.13851V2.92482L15.9799 0.67301C16.2301 0.47316 16.5727 0.434357 16.8612 0.573185C17.1498 0.712012 17.3333 1.00391 17.3333 1.32413L17.3333 10.585C17.3333 10.9068 17.1481 11.1997 16.8575 11.3378C16.5669 11.4758 16.2227 11.4342 15.9734 11.2309L13.1607 8.93778V11.1385C13.1607 11.5987 12.7876 11.9718 12.3274 11.9718H1.49984C1.0396 11.9718 0.666504 11.5987 0.666504 11.1385V1.13851ZM13.1607 5.05788V6.78741L15.6666 8.83044L15.6666 3.05629L13.1607 5.05788ZM11.494 3.63851V4.55588C11.4895 4.591 11.4872 4.62657 11.4872 4.66243L11.4872 7.17763C11.4872 7.21347 11.4895 7.24903 11.494 7.28412V10.3052H2.33317V1.97184H11.494V3.63851ZM6.91698 3.63851C7.37722 3.63851 7.75032 4.01161 7.75032 4.47184V5.30563H8.58408C9.04432 5.30563 9.41742 5.67873 9.41742 6.13897C9.41742 6.5992 9.04432 6.9723 8.58408 6.9723H7.75032V7.80609C7.75032 8.26633 7.37722 8.63942 6.91698 8.63942C6.45674 8.63942 6.08365 8.26633 6.08365 7.80609V6.9723H5.24984C4.7896 6.9723 4.4165 6.5992 4.4165 6.13897C4.4165 5.67873 4.7896 5.30563 5.24984 5.30563H6.08365V4.47184C6.08365 4.01161 6.45674 3.63851 6.91698 3.63851Z" fill="#BDBDBD"/>
</svg>
