<svg width="20" height="21" viewBox="0 0 20 21" fill="none" xmlns="http://www.w3.org/2000/svg">
<path fill-rule="evenodd" clip-rule="evenodd" d="M15 0.5H14H2C0.89543 0.5 0 1.49492 0 2.72222V4.94444V6.05556V7.16667V18.2778C0 19.5051 0.895432 20.5 2 20.5H18C19.1046 20.5 20 19.5051 20 18.2778V7.16667C20 5.93937 19.1046 4.94444 18 4.94444H15V1.61111V0.5ZM2 18.2778V7.16667H13H15H18V18.2778H2ZM2 4.94444H13V2.72222H2L2 4.94444ZM14 11.6111C13.4477 11.6111 13 12.1086 13 12.7222C13 13.3359 13.4477 13.8333 14 13.8333H15C15.5523 13.8333 16 13.3359 16 12.7222C16 12.1086 15.5523 11.6111 15 11.6111H14Z" fill="#898989"/>
</svg>
